<svg width="27" height="28" viewBox="0 0 27 28" fill="none" xmlns="http://www.w3.org/2000/svg">
<path d="M8.28906 21.9974C6.8224 21.9974 5.63573 23.1974 5.63573 24.6641C5.63573 26.1307 6.8224 27.3307 8.28906 27.3307C9.75573 27.3307 10.9557 26.1307 10.9557 24.6641C10.9557 23.1974 9.75573 21.9974 8.28906 21.9974ZM0.289062 0.664062V3.33073H2.95573L7.75573 13.4507L5.95573 16.7174C5.7424 17.0907 5.6224 17.5307 5.6224 17.9974C5.6224 19.4641 6.8224 20.6641 8.28906 20.6641H24.2891V17.9974H8.84906C8.6624 17.9974 8.51573 17.8507 8.51573 17.6641L8.55573 17.5041L9.75573 15.3307H19.6891C20.6891 15.3307 21.5691 14.7841 22.0224 13.9574L26.7957 5.30406C26.9024 5.1174 26.9557 4.89073 26.9557 4.66406C26.9557 3.93073 26.3557 3.33073 25.6224 3.33073H5.9024L4.64906 0.664062H0.289062ZM21.6224 21.9974C20.1557 21.9974 18.9691 23.1974 18.9691 24.6641C18.9691 26.1307 20.1557 27.3307 21.6224 27.3307C23.0891 27.3307 24.2891 26.1307 24.2891 24.6641C24.2891 23.1974 23.0891 21.9974 21.6224 21.9974Z" fill="black"/>
</svg>
