<svg width="16" height="17" viewBox="0 0 16 17" fill="none" xmlns="http://www.w3.org/2000/svg">
<g clip-path="url(#clip0_8996_74751)">
<path d="M8.0013 11.8346C8.73463 11.8346 9.33463 11.2346 9.33463 10.5013C9.33463 9.76797 8.73463 9.16797 8.0013 9.16797C7.26797 9.16797 6.66797 9.76797 6.66797 10.5013C6.66797 11.2346 7.26797 11.8346 8.0013 11.8346ZM12.0013 5.83464H11.3346V4.5013C11.3346 2.6613 9.8413 1.16797 8.0013 1.16797C6.1613 1.16797 4.66797 2.6613 4.66797 4.5013V5.83464H4.0013C3.26797 5.83464 2.66797 6.43464 2.66797 7.16797V13.8346C2.66797 14.568 3.26797 15.168 4.0013 15.168H12.0013C12.7346 15.168 13.3346 14.568 13.3346 13.8346V7.16797C13.3346 6.43464 12.7346 5.83464 12.0013 5.83464ZM5.93463 4.5013C5.93463 3.3613 6.8613 2.43464 8.0013 2.43464C9.1413 2.43464 10.068 3.3613 10.068 4.5013V5.83464H5.93463V4.5013ZM12.0013 13.8346H4.0013V7.16797H12.0013V13.8346Z" fill="black"/>
</g>
<defs>
<clipPath id="clip0_8996_74751">
<rect width="16" height="16" fill="white" transform="translate(0 0.5)"/>
</clipPath>
</defs>
</svg>
