<svg width="1366" height="652" viewBox="0 0 1366 652" fill="none" xmlns="http://www.w3.org/2000/svg">
<rect width="1366" height="652" fill="url(#paint0_linear_0_1)"/>
<mask id="mask0_0_1" style="mask-type:alpha" maskUnits="userSpaceOnUse" x="0" y="0" width="1366" height="652">
<rect width="1366" height="652" fill="url(#paint1_linear_0_1)"/>
</mask>
<g mask="url(#mask0_0_1)">
<g style="mix-blend-mode:luminosity">
<path d="M1286.84 764.929L1307.63 767C1264.99 702.4 1184.83 552.452 1203.43 359.791C1215.79 231.8 1206.34 25.8381 1145.06 -193H810.93C970.84 27.9477 1056.51 267.155 1084.48 413.772C1118.44 591.724 1224.91 709.52 1286.84 764.929Z" fill="#4FA9E0"/>
<path d="M1317.71 760.846L1851.81 -193H1431.26C1426.99 29.0024 1379.14 224.139 1332.27 341.315C1260.52 520.597 1294.95 686.603 1317.71 760.846Z" fill="#4FA9E0"/>
<path d="M914.569 607.937C977.764 674.789 1048.31 718.499 1113.26 747.111L1241.7 759.967C1164.79 717.015 1055.99 636.24 985.576 498.57C888.327 308.421 624.603 -30.5114 239.241 -193H-144.674V145.528C335.133 141.047 750.678 434.514 914.569 607.937Z" fill="#4FA9E0"/>
<path d="M-21.5977 590.838V656.92L980.6 757.329C784.815 648.905 383.493 514.238 -21.5977 590.838Z" fill="#4FA9E0"/>
</g>
</g>
<path fill-rule="evenodd" clip-rule="evenodd" d="M1158 103L1159.31 111.614L1160.71 120.794C1160.75 121.051 1160.95 121.253 1161.21 121.292L1170.39 122.688L1179 123.997L1170.39 125.311L1161.21 126.708H1161.21C1160.95 126.747 1160.75 126.949 1160.71 127.206L1159.31 136.386L1158 145L1156.69 136.386V136.385L1155.29 127.206C1155.25 126.949 1155.05 126.747 1154.79 126.708L1145.61 125.311L1137 123.997L1145.61 122.688L1154.79 121.292C1155.05 121.253 1155.25 121.051 1155.29 120.794L1156.69 111.615V111.614L1158 103L1158 103Z" fill="#FEFEFE"/>
<path fill-rule="evenodd" clip-rule="evenodd" d="M1177 89L1177.81 94.3327L1178.68 100.015C1178.7 100.175 1178.83 100.299 1178.98 100.324L1184.67 101.188L1190 101.998L1184.67 102.812L1178.98 103.676H1178.98C1178.83 103.701 1178.7 103.825 1178.68 103.985L1177.81 109.667L1177 115L1176.19 109.667V109.667L1175.32 103.985C1175.3 103.825 1175.17 103.701 1175.02 103.676L1169.33 102.812L1164 101.998L1169.33 101.188L1175.02 100.324C1175.17 100.299 1175.3 100.175 1175.32 100.015L1176.19 94.333V94.3327L1177 89L1177 89Z" fill="#FEFEFE"/>
<path fill-rule="evenodd" clip-rule="evenodd" d="M687.998 611L686.689 602.386L685.292 593.206C685.253 592.949 685.051 592.747 684.794 592.708L675.614 591.312L667 590.003L675.614 588.689L684.794 587.292L684.794 587.292C685.051 587.253 685.253 587.051 685.292 586.794L686.689 577.614L687.998 569L689.311 577.614L689.311 577.615L690.708 586.794C690.747 587.051 690.949 587.253 691.206 587.292L700.386 588.689L709 590.003L700.386 591.312L691.206 592.708C690.949 592.747 690.747 592.949 690.708 593.206L689.311 602.385L689.311 602.386L687.997 611L687.998 611Z" fill="#FEFEFE"/>
<path fill-rule="evenodd" clip-rule="evenodd" d="M668.999 625L668.188 619.667L667.324 613.985C667.3 613.825 667.175 613.701 667.016 613.676L661.333 612.812L656 612.002L661.333 611.188L667.015 610.324L667.016 610.324C667.175 610.299 667.3 610.175 667.324 610.015L668.188 604.333L668.998 599L669.812 604.333L669.812 604.333L670.676 610.015C670.701 610.175 670.825 610.299 670.985 610.324L676.667 611.188L682 612.002L676.667 612.812L670.984 613.676C670.825 613.701 670.7 613.825 670.676 613.985L669.812 619.667L669.812 619.667L668.998 625L668.999 625Z" fill="#FEFEFE"/>
<path fill-rule="evenodd" clip-rule="evenodd" d="M90.9979 117L89.6891 108.386L88.2924 99.2057C88.2531 98.9489 88.0513 98.7471 87.7944 98.7082L78.6145 97.3115L70 96.0027L78.6145 94.6889L87.794 93.2922L87.7944 93.2922C88.0513 93.2529 88.2531 93.0511 88.292 92.7943L89.6887 83.6144L90.9975 75L92.3113 83.6144L92.3113 83.6148L93.708 92.7942C93.7473 93.0511 93.9487 93.2529 94.206 93.2922L103.386 94.6889L112 96.0027L103.386 97.3115L94.2056 98.7082C93.9487 98.7471 93.7469 98.9489 93.708 99.2057L92.3113 108.385L92.3113 108.386L90.9975 117L90.9979 117Z" fill="#FEFEFE"/>
<path fill-rule="evenodd" clip-rule="evenodd" d="M181.998 620L180.689 611.386L179.292 602.206C179.253 601.949 179.051 601.747 178.794 601.708L169.614 600.312L161 599.003L169.614 597.689L178.794 596.292L178.794 596.292C179.051 596.253 179.253 596.051 179.292 595.794L180.689 586.614L181.998 578L183.311 586.614L183.311 586.615L184.708 595.794C184.747 596.051 184.949 596.253 185.206 596.292L194.386 597.689L203 599.003L194.386 600.312L185.206 601.708C184.949 601.747 184.747 601.949 184.708 602.206L183.311 611.385L183.311 611.386L181.997 620L181.998 620Z" fill="#FEFEFE"/>
<path fill-rule="evenodd" clip-rule="evenodd" d="M1301 514L1299.69 505.386L1298.29 496.206C1298.25 495.949 1298.05 495.747 1297.79 495.708L1288.61 494.312L1280 493.003L1288.61 491.689L1297.79 490.292L1297.79 490.292C1298.05 490.253 1298.25 490.051 1298.29 489.794L1299.69 480.614L1301 472L1302.31 480.614L1302.31 480.615L1303.71 489.794C1303.75 490.051 1303.95 490.253 1304.21 490.292L1313.39 491.689L1322 493.003L1313.39 494.312L1304.21 495.708C1303.95 495.747 1303.75 495.949 1303.71 496.206L1302.31 505.385L1302.31 505.386L1301 514L1301 514Z" fill="#FEFEFE"/>
<path fill-rule="evenodd" clip-rule="evenodd" d="M300.499 160L299.845 155.693L299.146 151.103C299.127 150.974 299.026 150.874 298.897 150.854L294.307 150.156L290 149.501L294.307 148.844L298.897 148.146L298.897 148.146C299.026 148.126 299.127 148.026 299.146 147.897L299.844 143.307L300.499 139L301.156 143.307L301.156 143.307L301.854 147.897C301.874 148.026 301.974 148.126 302.103 148.146L306.693 148.844L311 149.501L306.693 150.156L302.103 150.854C301.974 150.874 301.873 150.974 301.854 151.103L301.156 155.693L301.156 155.693L300.499 160L300.499 160Z" fill="#FEFEFE"/>
<path fill-rule="evenodd" clip-rule="evenodd" d="M59.499 405L58.8445 400.693L58.1462 396.103C58.1265 395.974 58.0257 395.874 57.8972 395.854L53.3072 395.156L49 394.501L53.3072 393.844L57.897 393.146L57.8972 393.146C58.0257 393.126 58.1265 393.026 58.146 392.897L58.8443 388.307L59.4988 384L60.1557 388.307L60.1557 388.307L60.854 392.897C60.8737 393.026 60.9744 393.126 61.103 393.146L65.6928 393.844L70 394.501L65.6928 395.156L61.1028 395.854C60.9743 395.874 60.8735 395.974 60.854 396.103L60.1557 400.693L60.1557 400.693L59.4987 405L59.499 405Z" fill="#FEFEFE"/>
<path fill-rule="evenodd" clip-rule="evenodd" d="M471.499 569L470.845 564.693L470.146 560.103C470.127 559.974 470.026 559.874 469.897 559.854L465.307 559.156L461 558.501L465.307 557.844L469.897 557.146L469.897 557.146C470.026 557.126 470.127 557.026 470.146 556.897L470.844 552.307L471.499 548L472.156 552.307L472.156 552.307L472.854 556.897C472.874 557.026 472.974 557.126 473.103 557.146L477.693 557.844L482 558.501L477.693 559.156L473.103 559.854C472.974 559.874 472.873 559.974 472.854 560.103L472.156 564.693L472.156 564.693L471.499 569L471.499 569Z" fill="#FEFEFE"/>
<path fill-rule="evenodd" clip-rule="evenodd" d="M1097.5 599L1096.84 594.693L1096.15 590.103C1096.13 589.974 1096.03 589.874 1095.9 589.854L1091.31 589.156L1087 588.501L1091.31 587.844L1095.9 587.146L1095.9 587.146C1096.03 587.126 1096.13 587.026 1096.15 586.897L1096.84 582.307L1097.5 578L1098.16 582.307L1098.16 582.307L1098.85 586.897C1098.87 587.026 1098.97 587.126 1099.1 587.146L1103.69 587.844L1108 588.501L1103.69 589.156L1099.1 589.854C1098.97 589.874 1098.87 589.974 1098.85 590.103L1098.16 594.693L1098.16 594.693L1097.5 599L1097.5 599Z" fill="#FEFEFE"/>
<path fill-rule="evenodd" clip-rule="evenodd" d="M1311.5 289L1310.84 284.693L1310.15 280.103C1310.13 279.974 1310.03 279.874 1309.9 279.854L1305.31 279.156L1301 278.501L1305.31 277.844L1309.9 277.146L1309.9 277.146C1310.03 277.126 1310.13 277.026 1310.15 276.897L1310.84 272.307L1311.5 268L1312.16 272.307L1312.16 272.307L1312.85 276.897C1312.87 277.026 1312.97 277.126 1313.1 277.146L1317.69 277.844L1322 278.501L1317.69 279.156L1313.1 279.854C1312.97 279.874 1312.87 279.974 1312.85 280.103L1312.16 284.693L1312.16 284.693L1311.5 289L1311.5 289Z" fill="#FEFEFE"/>
<path fill-rule="evenodd" clip-rule="evenodd" d="M1002.5 65L1001.84 60.6928L1001.15 56.1029C1001.13 55.9744 1001.03 55.8736 1000.9 55.8541L996.307 55.1558L992 54.5013L996.307 53.8444L1000.9 53.1461L1000.9 53.1461C1001.03 53.1264 1001.13 53.0256 1001.15 52.8971L1001.84 48.3072L1002.5 44L1003.16 48.3072L1003.16 48.3074L1003.85 52.8971C1003.87 53.0256 1003.97 53.1264 1004.1 53.1461L1008.69 53.8444L1013 54.5013L1008.69 55.1558L1004.1 55.8541C1003.97 55.8736 1003.87 55.9744 1003.85 56.1029L1003.16 60.6926L1003.16 60.6928L1002.5 65L1002.5 65Z" fill="#FEFEFE"/>
<path fill-rule="evenodd" clip-rule="evenodd" d="M122.499 253L121.845 248.693L121.146 244.103C121.127 243.974 121.026 243.874 120.897 243.854L116.307 243.156L112 242.501L116.307 241.844L120.897 241.146L120.897 241.146C121.026 241.126 121.127 241.026 121.146 240.897L121.844 236.307L122.499 232L123.156 236.307L123.156 236.307L123.854 240.897C123.874 241.026 123.974 241.126 124.103 241.146L128.693 241.844L133 242.501L128.693 243.156L124.103 243.854C123.974 243.874 123.873 243.974 123.854 244.103L123.156 248.693L123.156 248.693L122.499 253L122.499 253Z" fill="#FEFEFE"/>
<defs>
<linearGradient id="paint0_linear_0_1" x1="1366" y1="-0.000188932" x2="859.079" y2="1062.04" gradientUnits="userSpaceOnUse">
<stop stop-color="#4FA9E0"/>
<stop offset="1" stop-color="#3169AD"/>
</linearGradient>
<linearGradient id="paint1_linear_0_1" x1="1366" y1="-0.000188932" x2="859.079" y2="1062.04" gradientUnits="userSpaceOnUse">
<stop stop-color="#4FA9E0"/>
<stop offset="1" stop-color="#3169AD"/>
</linearGradient>
</defs>
</svg>
