<?xml version="1.0" encoding="UTF-8"?><svg id="Layer_2" xmlns="http://www.w3.org/2000/svg" viewBox="0 0 63.83 70.97"><defs><style>.cls-1{stroke:#fff;}.cls-1,.cls-2{fill:none;}.cls-1,.cls-2,.cls-3{strokeWidth:2px;}.cls-2{stroke:#e9863b;}.cls-3{fill:#f2eb5f;stroke:#255d7e;stroke-miterlimit:10;}</style></defs><g id="Layer_1-2"><path class="cls-3" d="M2.52,35.48c6.91,2.99,13.11,7.41,18.18,12.97,5.07,5.56,8.89,12.13,11.21,19.28,2.32-7.15,6.14-13.72,11.21-19.29,5.07-5.56,11.27-9.98,18.18-12.97-6.92-2.98-13.12-7.4-18.19-12.96-5.07-5.56-8.89-12.13-11.21-19.28-2.32,7.15-6.14,13.72-11.21,19.28-5.07,5.56-11.27,9.98-18.19,12.96Z"/><path class="cls-1" d="M31.35,15.56c-1.87,4.83-8.07,15.55-17.99,19.74,5.06,2.95,15.59,11.04,17.19,19.74"/><path class="cls-2" d="M35.29,23.02c3.16,4.59,7.89,9.61,14.04,12.16-3.64,2.09-10.08,6.77-14.04,12.4"/></g></svg>